<?xml version="1.0" encoding="UTF-8"?>
<svg xmlns="http://www.w3.org/2000/svg" width="24" height="25" viewBox="0 0 24 25" fill="none">
  <path d="M23.643 5.71198C22.808 6.08198 21.911 6.33198 20.968 6.44498C21.941 5.86277 22.6689 4.94645 23.016 3.86698C22.1018 4.40997 21.1013 4.79217 20.058 4.99698C19.3564 4.24784 18.4271 3.75131 17.4143 3.58445C16.4016 3.4176 15.3621 3.58977 14.4572 4.07423C13.5524 4.55869 12.8328 5.32834 12.4102 6.26368C11.9875 7.19902 11.8855 8.24773 12.12 9.24698C10.2677 9.15398 8.45562 8.67253 6.80142 7.83388C5.14722 6.99524 3.68784 5.81814 2.518 4.37898C2.118 5.06898 1.888 5.86898 1.888 6.72098C1.88755 7.48797 2.07643 8.24322 2.43788 8.91971C2.79932 9.5962 3.32216 10.173 3.96 10.599C3.22027 10.5754 2.49687 10.3756 1.85 10.016V10.076C1.84992 11.1517 2.22203 12.1944 2.90318 13.027C3.58433 13.8596 4.53257 14.4309 5.587 14.644C4.90078 14.8297 4.18133 14.857 3.483 14.724C3.78049 15.6496 4.35999 16.459 5.14036 17.0389C5.92074 17.6188 6.86291 17.9402 7.835 17.958C6.18483 19.2534 4.14688 19.9561 2.049 19.953C1.67738 19.9531 1.30607 19.9314 0.936996 19.888C3.06647 21.2572 5.54534 21.9838 8.077 21.981C16.647 21.981 21.332 14.883 21.332 8.72698C21.332 8.52698 21.327 8.32498 21.318 8.12498C22.2293 7.46595 23.0159 6.64987 23.641 5.71498L23.643 5.71198Z" fill="white"></path>
</svg>
