<?xml version="1.0" encoding="UTF-8"?>
<svg xmlns="http://www.w3.org/2000/svg" width="24" height="25" viewBox="0 0 24 25" fill="none">
  <g clip-path="url(#clip0_71_16506)">
    <path fill-rule="evenodd" clip-rule="evenodd" d="M24 12.7754C24 19.4024 18.627 24.7754 12 24.7754C5.373 24.7754 0 19.4024 0 12.7754C0 6.14839 5.373 0.775391 12 0.775391C18.627 0.775391 24 6.14839 24 12.7754ZM12.43 9.63439C11.263 10.1194 8.93 11.1244 5.432 12.6484C4.864 12.8744 4.566 13.0954 4.539 13.3114C4.493 13.6774 4.951 13.8214 5.573 14.0164C5.658 14.0434 5.746 14.0704 5.836 14.1004C6.449 14.2994 7.273 14.5324 7.701 14.5414C8.09 14.5494 8.524 14.3894 9.003 14.0614C12.271 11.8544 13.958 10.7394 14.064 10.7154C14.139 10.6984 14.243 10.6764 14.313 10.7394C14.383 10.8014 14.376 10.9194 14.369 10.9514C14.323 11.1444 12.529 12.8134 11.599 13.6774C11.309 13.9464 11.104 14.1374 11.062 14.1814C10.968 14.2784 10.872 14.3714 10.78 14.4604C10.21 15.0084 9.784 15.4204 10.804 16.0924C11.294 16.4154 11.686 16.6824 12.077 16.9484C12.504 17.2394 12.93 17.5294 13.482 17.8914C13.622 17.9834 13.756 18.0784 13.887 18.1714C14.384 18.5264 14.831 18.8444 15.383 18.7944C15.703 18.7644 16.035 18.4634 16.203 17.5644C16.6 15.4384 17.382 10.8344 17.563 8.93639C17.574 8.7788 17.5673 8.62048 17.543 8.46439C17.5285 8.33832 17.4671 8.22232 17.371 8.13939C17.228 8.02239 17.006 7.99739 16.906 7.99939C16.455 8.00739 15.763 8.24839 12.43 9.63439Z" fill="white"></path>
  </g>
  <defs>
    <clipPath id="clip0_71_16506">
      <rect width="24" height="24" fill="white" transform="translate(0 0.775391)"></rect>
    </clipPath>
  </defs>
</svg>
