<?xml version="1.0" encoding="UTF-8"?>
<svg xmlns="http://www.w3.org/2000/svg" width="33" height="33" viewBox="0 0 33 33" fill="none">
  <path d="M16.3199 28.76C22.3189 28.76 27.1999 23.8789 27.1999 17.88C27.1999 13.324 24.382 9.41943 20.3999 7.80103V10.8243C21.6388 11.5396 22.6678 12.5679 23.3839 13.8063C24.1 15.0446 24.478 16.4495 24.4799 17.88C24.4799 22.3802 20.8202 26.04 16.3199 26.04C11.8197 26.04 8.15994 22.3802 8.15994 17.88C8.16175 16.4495 8.53966 15.0446 9.25576 13.8062C9.97187 12.5678 11.001 11.5394 12.2399 10.8243V7.80103C8.25786 9.41943 5.43994 13.324 5.43994 17.88C5.43994 23.8789 10.321 28.76 16.3199 28.76Z" fill="white"></path>
  <path d="M14.96 2.91992H17.68V16.5199H14.96V2.91992Z" fill="white"></path>
</svg>
