<?xml version="1.0" encoding="UTF-8"?>
<svg xmlns="http://www.w3.org/2000/svg" width="33" height="34" viewBox="0 0 33 34" fill="none">
  <path d="M7.03995 30.3599H26.0799C27.58 30.3599 28.7999 29.14 28.7999 27.6399V12.6799C28.7999 12.3192 28.6567 11.9733 28.4016 11.7182C28.1466 11.4632 27.8006 11.3199 27.4399 11.3199H23.3599V9.95991C23.3599 6.21039 20.3095 3.15991 16.5599 3.15991C12.8104 3.15991 9.75995 6.21039 9.75995 9.95991V11.3199H5.67995C5.31925 11.3199 4.97333 11.4632 4.71828 11.7182C4.46323 11.9733 4.31995 12.3192 4.31995 12.6799V27.6399C4.31995 29.14 5.53987 30.3599 7.03995 30.3599ZM12.4799 9.95991C12.4799 7.71047 14.3105 5.87991 16.5599 5.87991C18.8094 5.87991 20.6399 7.71047 20.6399 9.95991V11.3199H12.4799V9.95991ZM7.03995 14.0399H9.75995V16.7599H12.4799V14.0399H20.6399V16.7599H23.3599V14.0399H26.0799L26.0827 27.6399H7.03995V14.0399Z" fill="white"></path>
</svg>
