<?xml version="1.0" encoding="UTF-8"?>
<svg xmlns="http://www.w3.org/2000/svg" width="34" height="33" viewBox="0 0 34 33" fill="none">
  <path d="M16.7199 20.6001C14.2175 20.6001 13.9999 19.4305 13.9999 19.2401H11.2799C11.2799 20.4913 12.1775 22.7081 15.3599 23.2113V24.6801H18.0799V23.2113C20.7999 22.7489 22.1599 20.9945 22.1599 19.2401C22.1599 17.7169 21.4527 15.1601 16.7199 15.1601C13.9999 15.1601 13.9999 14.3033 13.9999 13.8001C13.9999 13.2969 14.9519 12.4401 16.7199 12.4401C18.4879 12.4401 18.6103 13.3105 18.6239 13.8001H21.3439C21.3255 12.8736 20.9923 11.981 20.3991 11.2691C19.8058 10.5572 18.9879 10.0685 18.0799 9.88331V8.36011H15.3599V9.84251C12.6399 10.2913 11.2799 12.0457 11.2799 13.8001C11.2799 15.3233 11.9871 17.8801 16.7199 17.8801C19.4399 17.8801 19.4399 18.8049 19.4399 19.2401C19.4399 19.6753 18.5967 20.6001 16.7199 20.6001Z" fill="white"></path>
  <path d="M7.19987 2.91992H3.11987V5.63992H5.83987V28.7599C5.83987 29.1206 5.98316 29.4665 6.23821 29.7216C6.49326 29.9766 6.83918 30.1199 7.19987 30.1199H26.2399C26.6006 30.1199 26.9465 29.9766 27.2015 29.7216C27.4566 29.4665 27.5999 29.1206 27.5999 28.7599V5.63992H30.3199V2.91992H7.19987ZM24.8799 27.3999H8.55987V5.63992H24.8799V27.3999Z" fill="white"></path>
</svg>
