<?xml version="1.0" encoding="UTF-8"?>
<svg xmlns="http://www.w3.org/2000/svg" width="33" height="33" viewBox="0 0 33 33" fill="none">
  <path d="M25.8801 2.71997H12.2801C10.78 2.71997 9.56012 3.93989 9.56012 5.43997V13.6H6.84012C5.34004 13.6 4.12012 14.8199 4.12012 16.32V28.56C4.12012 28.9207 4.2634 29.2666 4.51845 29.5216C4.7735 29.7767 5.11942 29.92 5.48012 29.92H27.2401C27.6008 29.92 27.9467 29.7767 28.2018 29.5216C28.4568 29.2666 28.6001 28.9207 28.6001 28.56V5.43997C28.6001 3.93989 27.3802 2.71997 25.8801 2.71997ZM6.84012 16.32H15.0001V27.2H6.84012V16.32ZM25.8801 27.2H17.7201V16.32C17.7201 14.8199 16.5002 13.6 15.0001 13.6H12.2801V5.43997H25.8801V27.2Z" fill="white"></path>
  <path d="M15.0002 8.15991H17.7202V10.8799H15.0002V8.15991ZM20.4402 8.15991H23.1602V10.8799H20.4402V8.15991ZM20.4402 13.6421H23.1602V16.3199H20.4402V13.6421ZM20.4402 19.0399H23.1602V21.7599H20.4402V19.0399ZM9.56018 19.0413H12.2802V21.7613H9.56018V19.0413Z" fill="white"></path>
</svg>
