<?xml version="1.0" encoding="UTF-8"?>
<svg xmlns="http://www.w3.org/2000/svg" width="80" height="80" viewBox="0 0 80 80" fill="none">
  <path fill-rule="evenodd" clip-rule="evenodd" d="M45.3013 16.7915C46.1693 17.1694 46.6534 18.104 46.4613 19.0309L43.4548 33.5432H54C54.748 33.5432 55.4335 33.9606 55.7769 34.6252C56.1202 35.2897 56.064 36.0903 55.6312 36.7004L37.1283 62.7824C36.5806 63.5545 35.5666 63.8368 34.6987 63.4589C33.8307 63.081 33.3466 62.1464 33.5387 61.2194L36.5452 46.7071H26C25.252 46.7071 24.5665 46.2897 24.2232 45.6252C23.8798 44.9606 23.936 44.16 24.3688 43.5499L42.8717 17.468C43.4194 16.6959 44.4334 16.4136 45.3013 16.7915ZM29.871 42.7071H39.0021C39.6037 42.7071 40.1733 42.978 40.5531 43.4445C40.9329 43.9111 41.0825 44.5238 40.9605 45.1129L39.3936 52.676L50.129 37.5432H40.998C40.3964 37.5432 39.8267 37.2724 39.4469 36.8059C39.0671 36.3393 38.9175 35.7266 39.0395 35.1375L40.6064 27.5743L29.871 42.7071Z" fill="#C3F458"></path>
  <g filter="url(#filter0_i_189_368)">
    <circle cx="40" cy="40" r="40" fill="#C3F458" fill-opacity="0.01"></circle>
  </g>
  <defs>
    <filter id="filter0_i_189_368" x="0" y="0" width="80" height="80" color-interpolation-filters="sRGB">
      <feFlood flood-opacity="0" result="BackgroundImageFix"></feFlood>
      <feBlend mode="normal" in="SourceGraphic" in2="BackgroundImageFix" result="shape"></feBlend>
      <feColorMatrix in="SourceAlpha" type="matrix" values="0 0 0 0 0 0 0 0 0 0 0 0 0 0 0 0 0 0 127 0" result="hardAlpha"></feColorMatrix>
      <feMorphology radius="10" operator="erode" in="SourceAlpha" result="effect1_innerShadow_189_368"></feMorphology>
      <feOffset></feOffset>
      <feGaussianBlur stdDeviation="12.5"></feGaussianBlur>
      <feComposite in2="hardAlpha" operator="arithmetic" k2="-1" k3="1"></feComposite>
      <feColorMatrix type="matrix" values="0 0 0 0 0.796078 0 0 0 0 0.956863 0 0 0 0 0.443137 0 0 0 0.15 0"></feColorMatrix>
      <feBlend mode="screen" in2="shape" result="effect1_innerShadow_189_368"></feBlend>
    </filter>
  </defs>
</svg>
