<?xml version="1.0" encoding="UTF-8"?>
<svg xmlns="http://www.w3.org/2000/svg" width="232" height="64" viewBox="0 0 232 64" fill="none">
  <path d="M50.1516 63.0245V3.80029H77.4898C90.0506 3.80029 99.6559 11.2033 99.6559 24.5288C99.6559 37.8542 90.7894 45.2572 77.4898 45.2572H63.4513V63.0245H50.1516ZM63.4513 15.6451V33.4124H78.2287C84.1396 33.4124 86.3562 31.1915 86.3562 24.5288C86.3562 17.1257 84.1396 15.6451 78.2287 15.6451H63.4513Z" fill="black"></path>
  <path d="M101.972 51.18C101.972 44.5173 107.144 40.0755 116.01 38.5949L131.526 36.374V34.8934C131.526 29.7112 128.571 28.9709 123.399 28.9709C118.227 28.9709 116.01 30.4515 116.01 34.8934V35.6337H103.449V34.8934C103.449 24.5291 111.577 17.1261 124.138 17.1261C137.437 17.1261 144.087 24.5291 144.087 36.374V63.0248H131.526V57.1024H130.788C128.571 60.0636 124.138 63.7652 115.271 63.7652C107.883 63.7652 101.972 59.3233 101.972 51.18ZM120.443 53.4009C125.616 53.4009 131.526 51.9203 131.526 45.2576L118.966 47.4785C116.01 48.2188 115.271 48.9591 115.271 50.4397C114.532 52.6606 116.749 53.4009 120.443 53.4009Z" fill="black"></path>
  <path d="M186.304 63.0245V3.80029H199.604V34.893H206.254L216.598 18.6063H231.375L216.598 40.0751L231.375 63.7648H215.859L206.254 47.4781H199.604V63.7648H186.304V63.0245Z" fill="black"></path>
  <path d="M181.131 17.8661V30.4513H163.399V63.0246H150.099V17.8661H181.131Z" fill="black"></path>
  <path d="M44.9796 27.095V48.2183C39.0687 54.1408 36.1132 57.102 30.2022 63.0244H15.4249C9.5139 57.102 6.55842 54.1408 0.647461 48.2183V27.095H13.9471V51.1796H31.68V27.095H44.9796Z" fill="black"></path>
  <path d="M22.8137 25.1703C29.7508 25.1703 35.3745 19.5357 35.3745 12.5851C35.3745 5.63456 29.7508 0 22.8137 0C15.8766 0 10.2529 5.63456 10.2529 12.5851C10.2529 19.5357 15.8766 25.1703 22.8137 25.1703Z" fill="black"></path>
</svg>
