<?xml version="1.0" encoding="UTF-8"?>
<svg xmlns="http://www.w3.org/2000/svg" width="87" height="24" viewBox="0 0 87 24" fill="none">
  <path d="M18.6324 23.7212V1.43036H28.922C33.6496 1.43036 37.2648 4.21672 37.2648 9.23216C37.2648 14.2476 33.9277 17.034 28.922 17.034H23.6381V23.7212H18.6324ZM23.6381 5.88853V12.5758H29.2001C31.4248 12.5758 32.2591 11.7399 32.2591 9.23216C32.2591 6.4458 31.4248 5.88853 29.2001 5.88853H23.6381Z" fill="white"></path>
  <path d="M38.1365 19.2632C38.1365 16.7554 40.0832 15.0836 43.4204 14.5264L49.2604 13.6905V13.1332C49.2604 11.1827 48.148 10.9041 46.2013 10.9041C44.2547 10.9041 43.4204 11.4614 43.4204 13.1332V13.4118H38.6927V13.1332C38.6927 9.23228 41.7518 6.44592 46.4794 6.44592C51.4852 6.44592 53.988 9.23228 53.988 13.6905V23.7213H49.2604V21.4923H48.9823C48.148 22.6068 46.4794 24 43.1423 24C40.3613 24 38.1365 22.3282 38.1365 19.2632ZM45.089 20.0991C47.0356 20.0991 49.2604 19.5418 49.2604 17.0341L44.5328 17.87C43.4204 18.1486 43.1423 18.4273 43.1423 18.9845C42.8642 19.8204 43.6985 20.0991 45.089 20.0991Z" fill="white"></path>
  <path d="M69.8777 23.7212V1.43036H74.8834V13.1331H77.3863L81.2796 7.00307H86.8416L81.2796 15.0835L86.8416 23.9999H81.0015L77.3863 17.8699H74.8834V23.9999H69.8777V23.7212Z" fill="white"></path>
  <path d="M67.9307 6.72449V11.4613H61.2564V23.7213H56.2507V6.72449H67.9307Z" fill="white"></path>
  <path d="M16.6858 10.1981V18.1485C14.461 20.3776 13.3486 21.4921 11.1239 23.7212H5.56193C3.33716 21.4921 2.22477 20.3776 0 18.1485V10.1981H5.00574V19.263H11.68V10.1981H16.6858Z" fill="#C3F458"></path>
  <path d="M8.343 9.47361C10.954 9.47361 13.0706 7.35287 13.0706 4.73681C13.0706 2.12074 10.954 0 8.343 0C5.73199 0 3.61536 2.12074 3.61536 4.73681C3.61536 7.35287 5.73199 9.47361 8.343 9.47361Z" fill="#C3F458"></path>
</svg>
